<?xml version='1.0' encoding='utf-8'?>
<svg xmlns="http://www.w3.org/2000/svg" width="792" height="191" viewBox="-12 -25 792 191" role="img" aria-labelledby="title">
  <title id="title">Hikarinagi wordmark</title>
  <g id="letter-H" transform="translate(0 0)" fill="#39C5BB">
    <path fill-rule="evenodd" d="M5.5 8 H25.5 Q31 8 31 13.5 V61.5 Q31 63 32.4 62.42 L75.6 44.58 Q77 44 77 42.5 V13.5 Q77 8 82.5 8 H102.5 Q108 8 108 13.5 V118.5 Q108 124 102.5 124 H82.5 Q77 124 77 118.5 V68.5 Q77 67 75.6 67.58 L32.4 85.42 Q31 86 31 87.5 V118.5 Q31 124 25.5 124 H5.5 Q0 124 0 118.5 V13.5 Q0 8 5.5 8 Z" />
  </g>
  <g id="letter-i-1" transform="translate(120 0)" fill="#39C5BB">
    <path fill-rule="evenodd" d="M5.5 25 H25.5 Q31 25 31 30.5 V118.5 Q31 124 25.5 124 H5.5 Q0 124 0 118.5 V30.5 Q0 25 5.5 25 Z" />
    <path fill-rule="evenodd" d="M31 2.5 C31 11.0604 24.0604 18 15.5 18 C6.9396 18 0 11.0604 0 2.5 C0 -6.0604 6.9396 -13 15.5 -13 C24.0604 -13 31 -6.0604 31 2.5 Z" />
  </g>
  <g id="letter-k" transform="translate(162 0)" fill="#39C5BB">
    <path fill-rule="evenodd" d="M5.5 8 H25.5 Q31 8 31 13.5 V62.5 Q31 64 31.9 62.8 L58 29 Q61 26 66 26 H86.5 Q93 26 90 30 L58 68.8 Q57 70 58 71.3 L93 118.5 Q96 124 90 124 H66 Q62 124 60 121 L32 87.2 Q31 86 31 87.5 V118.5 Q31 124 25.5 124 H5.5 Q0 124 0 118.5 V13.5 Q0 8 5.5 8 Z" />
  </g>
  <g id="letter-a-1" transform="translate(257 0)" fill="#39C5BB">
    <path fill-rule="evenodd" d="M10 29 C27 22 48 21 62 25 C81 30 89 44 89 66 V112.5 Q89 117.9 83.5 120 C73 124 56 127 42 127 C15 127 0 116 0 97 C0 73 18 60 55 60 H57 Q60 60 60 57 C60 48 51 44 42 44 C32 44 23 47 17.5 49.2 Q12 52 10 46.5 L6.5 36.5 Q4 31 10 29 Z M59 83 C59 79 56 77 52 77 C39 77 29 83 29 95 C29 104 34 108 43 108 C53 108 59 104 59 99 Z" />
  </g>
  <g id="letter-r" transform="translate(352 0)" fill="#39C5BB">
    <path fill-rule="evenodd" d="M5.5 124 Q0 124 0 118.5 V67 C0 38 21 23 45 23 Q50.5 23 50.5 28.5 V40.5 Q50.5 46 45 46 C34 46 30.5 54 30.5 67 V118.5 Q30.5 124 25 124 Z" />
  </g>
  <g id="letter-i-accent" transform="translate(413 0)" fill="#F59E0B">
    <path fill-rule="evenodd" d="M5 27.68 L24.5 21.48 Q31 19.4 31 26.5 V118.5 Q31 124 25.5 124 H5.5 Q0 124 0 118.5 V35.5 Q0 29.3 5 27.68 Z" />
    <path fill-rule="evenodd" d="M1 -3.32 C6 -4.9 10 -4.9 13.8 -3.75 Q15.5 -3.1 17.2 -4.9 C21 -9 24.3 -10.7 28.5 -12.03 Q35 -14.6 35 -7.5 V3.5 Q35 8.1 30.5 9.47 C25 11.21 21.5 13.2 17 16 Q15.5 16.9 13.8 16.4 C9.8 16.35 6.5 17.06 2.5 18.33 Q-4 20.9 -4 13.5 V4.5 Q-4 -1.7 1 -3.32 Z" id="shiori-dot" />
  </g>
  <g id="letter-n" transform="translate(453 0)" fill="#39C5BB">
    <path fill-rule="evenodd" d="M0 38.5 Q0 33 6 30.62 C18 26 35 23 46 23 C73 23 88.5 38 88.5 64 V118.5 Q88.5 124 83 124 H63.5 Q58 124 58 118.5 V61 C58 49 54 46 44.5 46 C36 46 30.5 49 30.5 53 V118.5 Q30.5 124 25 124 H5.5 Q0 124 0 118.5 Z" />
  </g>
  <g id="letter-a-2" transform="translate(547 0)" fill="#39C5BB">
    <path fill-rule="evenodd" d="M10 29 C27 22 48 21 62 25 C81 30 89 44 89 66 V112.5 Q89 117.9 83.5 120 C73 124 56 127 42 127 C15 127 0 116 0 97 C0 73 18 60 55 60 H57 Q60 60 60 57 C60 48 51 44 42 44 C32 44 23 47 17.5 49.2 Q12 52 10 46.5 L6.5 36.5 Q4 31 10 29 Z M59 83 C59 79 56 77 52 77 C39 77 29 83 29 95 C29 104 34 108 43 108 C53 108 59 104 59 99 Z" />
  </g>
  <g id="letter-g" transform="translate(642 0)" fill="#39C5BB">
    <path fill-rule="evenodd" d="M47 25 C61 25 74 28 82 33 Q86 35 86 39 V115 C86 139 72 153 47 153 C36 153 28 151.5 20 149 Q16 147.5 17.5 143 L20 136 Q21.5 131 26 133 C33 136 40 137 47 134 C54 131 57 126 57 114 V113 C51 117 44 119 35 119 C13 119 0 102 0 77 C0 47 17 25 47 25 Z M56 53 C56 47 51 44 46 44 C34 44 29.5 56 29.5 75 C29.5 93 32.5 103 43 103 C51 103 56 98 56 91 Z" />
  </g>
  <g id="letter-i-3" transform="translate(737 0)" fill="#39C5BB">
    <path fill-rule="evenodd" d="M5.5 25 H25.5 Q31 25 31 30.5 V118.5 Q31 124 25.5 124 H5.5 Q0 124 0 118.5 V30.5 Q0 25 5.5 25 Z" />
    <path fill-rule="evenodd" d="M31 2.5 C31 11.0604 24.0604 18 15.5 18 C6.9396 18 0 11.0604 0 2.5 C0 -6.0604 6.9396 -13 15.5 -13 C24.0604 -13 31 -6.0604 31 2.5 Z" />
  </g>
</svg>